<?xml version="1.0" standalone="no"?>
<!DOCTYPE svg PUBLIC "-//W3C//DTD SVG 20010904//EN"
 "http://www.w3.org/TR/2001/REC-SVG-20010904/DTD/svg10.dtd">
<svg version="1.0" xmlns="http://www.w3.org/2000/svg"
 width="1024.000000pt" height="1024.000000pt" viewBox="0 0 1024.000000 1024.000000"
 preserveAspectRatio="xMidYMid meet">

<g transform="translate(0.000000,1024.000000) scale(0.100000,-0.100000)"
fill="#000000" stroke="none">
<path d="M4925 7414 c-169 -19 -363 -77 -530 -160 -395 -194 -685 -528 -814
-934 -52 -164 -66 -257 -64 -440 1 -136 6 -188 28 -295 14 -71 30 -134 34
-138 4 -4 31 32 61 79 57 94 238 289 362 390 58 48 68 61 68 88 0 51 28 143
70 234 142 302 405 524 721 606 426 110 892 -65 1136 -429 179 -268 226 -633
121 -940 -121 -352 -414 -620 -752 -690 -241 -49 -500 -17 -698 87 -83 44 -94
38 -90 -47 15 -341 106 -501 327 -571 421 -134 1030 65 1397 455 277 295 427
686 428 1116 0 462 -203 913 -540 1198 -239 202 -485 321 -771 372 -92 16
-407 28 -494 19z"/>
<path d="M4872 6020 c-225 -29 -483 -128 -682 -263 -91 -62 -308 -277 -373
-369 -144 -204 -243 -426 -288 -643 -33 -156 -38 -433 -11 -590 46 -265 164
-521 343 -741 179 -221 438 -404 708 -503 335 -123 746 -127 1076 -10 420 148
730 418 924 805 106 211 149 385 158 629 7 187 -27 465 -55 465 -5 0 -37 -42
-72 -92 -77 -112 -269 -307 -362 -368 l-67 -43 -11 -65 c-38 -221 -138 -410
-299 -565 -256 -246 -568 -346 -921 -293 -234 36 -429 141 -603 326 -269 285
-358 724 -221 1087 42 110 111 238 168 309 192 240 557 401 861 379 160 -11
353 -62 451 -120 25 -15 49 -24 52 -20 4 4 8 67 10 141 4 151 -16 260 -61 331
-60 95 -180 165 -342 198 -98 20 -284 27 -383 15z"/>
</g>
</svg>
